<?xml version="1.0" encoding="utf-8"?>
<!-- Generator: Adobe Illustrator 24.0.2, SVG Export Plug-In . SVG Version: 6.00 Build 0)  -->
<svg version="1.1" id="Warstwa_1" xmlns="http://www.w3.org/2000/svg" xmlns:xlink="http://www.w3.org/1999/xlink" x="0px" y="0px"
	 viewBox="0 0 430 430" style="enable-background:new 0 0 430 430;" xml:space="preserve">
<style type="text/css">
	.st0{fill:#373867;}
	.st1{opacity:0.5;}
	.st2{opacity:0;}
	.st3{fill:#121331;}
	.st4{fill:#3a3347;}
	.st5{fill:#F28BA8;}
	.st6{fill:#FFC738;}
	.st7{fill:#ebe6ef;}
	.st8{fill:#2CA58D;}
	.st9{fill:#f24c00;}
	.st10{fill:#F9C9C0;}
	.st11{fill:#646E78;}
	.st12{opacity:0.4;}
	.st13{fill:#B26836;}
	.st14{opacity:0.8;}
</style>
<g>
	<path class="st0" d="M334.14,334.14c-65.8,65.8-172.49,65.8-238.29,0s-65.8-172.49,0-238.29s172.49-65.8,238.29,0
		S399.95,268.34,334.14,334.14z"/>
</g>
<g>
	<path class="st7" d="M312.37,312.37c-53.78,53.78-140.96,53.78-194.74,0s-53.78-140.96,0-194.74s140.96-53.78,194.74,0
		S366.15,258.59,312.37,312.37z"/>
</g>
<g class="st1">
	<path class="st7" d="M300.52,322.93c-54.05,42.95-132.91,39.42-182.89-10.56c-53.77-53.77-53.77-140.97,0-194.74
		c12.26-12.26,26.27-21.73,41.22-28.39c-4.1,3.25-8.07,6.78-11.85,10.56c-53.77,53.77-53.77,140.97,0,194.74
		C188.52,336.05,249.94,345.51,300.52,322.93z"/>
</g>
<g>
	<path class="st9" d="M215,215.26c-1.93,0-3.5-1.57-3.5-3.5v-68.98c0-1.93,1.57-3.5,3.5-3.5s3.5,1.57,3.5,3.5v68.98
		C218.5,213.7,216.93,215.26,215,215.26z"/>
</g>
<g>
	<path class="st4" d="M215,218.5c-0.9,0-1.79-0.34-2.47-1.02c-1.37-1.37-1.37-3.58,0-4.95l36.11-36.11c1.37-1.37,3.58-1.37,4.95,0
		c1.37,1.37,1.37,3.58,0,4.95l-36.11,36.11C216.79,218.16,215.9,218.5,215,218.5z"/>
</g>
<g>
	<circle class="st4" cx="215" cy="215" r="12.04"/>
</g>
<g>
	<path class="st4" d="M215,338.85c-1.93,0-3.5-1.57-3.5-3.5v-18.04c0-1.93,1.57-3.5,3.5-3.5s3.5,1.57,3.5,3.5v18.04
		C218.5,337.29,216.93,338.85,215,338.85z"/>
</g>
<g>
	<path class="st4" d="M300.1,303.6c-0.9,0-1.79-0.34-2.47-1.02l-12.76-12.76c-1.37-1.37-1.37-3.58,0-4.95
		c1.37-1.37,3.58-1.37,4.95,0l12.76,12.76c1.37,1.37,1.37,3.58,0,4.95C301.89,303.26,301,303.6,300.1,303.6z"/>
</g>
<g>
	<path class="st4" d="M335.35,218.5h-18.04c-1.93,0-3.5-1.57-3.5-3.5s1.57-3.5,3.5-3.5h18.04c1.93,0,3.5,1.57,3.5,3.5
		S337.29,218.5,335.35,218.5z"/>
</g>
<g>
	<path class="st4" d="M287.34,146.16c-0.9,0-1.79-0.34-2.47-1.02c-1.37-1.37-1.37-3.58,0-4.95l12.76-12.76
		c1.37-1.37,3.58-1.37,4.95,0c1.37,1.37,1.37,3.58,0,4.95l-12.76,12.76C289.13,145.81,288.24,146.16,287.34,146.16z"/>
</g>
<g>
	<path class="st4" d="M215,116.19c-1.93,0-3.5-1.57-3.5-3.5V94.65c0-1.93,1.57-3.5,3.5-3.5s3.5,1.57,3.5,3.5v18.04
		C218.5,114.62,216.93,116.19,215,116.19z"/>
</g>
<g>
	<path class="st4" d="M142.66,146.16c-0.9,0-1.79-0.34-2.47-1.02l-12.76-12.76c-1.37-1.37-1.37-3.58,0-4.95
		c1.37-1.37,3.58-1.37,4.95,0l12.76,12.76c1.37,1.37,1.37,3.58,0,4.95C144.45,145.81,143.55,146.16,142.66,146.16z"/>
</g>
<g>
	<path class="st4" d="M112.69,218.5H94.65c-1.93,0-3.5-1.57-3.5-3.5s1.57-3.5,3.5-3.5h18.04c1.93,0,3.5,1.57,3.5,3.5
		S114.62,218.5,112.69,218.5z"/>
</g>
<g>
	<path class="st4" d="M129.9,303.6c-0.9,0-1.79-0.34-2.47-1.03c-1.37-1.37-1.37-3.58,0-4.95l12.76-12.76c1.37-1.37,3.58-1.37,4.95,0
		c1.37,1.37,1.37,3.58,0,4.95l-12.76,12.76C131.69,303.26,130.79,303.6,129.9,303.6z"/>
</g>
<g class="st12">
	<path class="st0" d="M305.79,356.99c-65.22,41.78-152.92,34.17-209.93-22.84c-65.8-65.8-65.8-172.49,0-238.29
		c12.97-12.97,27.52-23.38,43.04-31.23c-10.06,6.44-19.57,14.05-28.36,22.84c-65.8,65.8-65.8,172.49,0,238.29
		C163.37,378.58,242.56,389,305.79,356.99z"/>
</g>
</svg>
