<?xml version="1.0" encoding="utf-8"?>
<!-- Generator: Adobe Illustrator 24.0.2, SVG Export Plug-In . SVG Version: 6.00 Build 0)  -->
<svg version="1.1" id="Warstwa_1" xmlns="http://www.w3.org/2000/svg" xmlns:xlink="http://www.w3.org/1999/xlink" x="0px" y="0px"
	 viewBox="0 0 430 430" style="enable-background:new 0 0 430 430;" xml:space="preserve">
<style type="text/css">
	.st0{fill:#4BB3FD;}
	.st1{opacity:0.5;}
	.st2{opacity:0;}
	.st3{fill:#121331;}
	.st4{fill:#3a3347;}
	.st5{fill:#F28BA8;}
	.st6{fill:#FFC738;}
	.st7{fill:#ebe6ef;}
	.st8{fill:#2CA58D;}
	.st9{fill:#373867;}
	.st10{fill:#F9C9C0;}
	.st11{fill:#646E78;}
	.st12{opacity:0.4;}
	.st13{fill:#373867;}
	.st14{opacity:0.8;}
</style>
<g>
	<path class="st7" d="M348.13,191.3v180.29c0,2.21-1.79,4-4,4H85.87c-2.21,0-4-1.79-4-4V191.14L215,70.35l23.04,20.93L348.13,191.3z
		"/>
</g>
<g class="st1">
	<path class="st7" d="M238.04,91.28L103.72,213.14v162.45H85.87c-2.21,0-4-1.79-4-4V191.14L215,70.35L238.04,91.28z"/>
</g>
<g>
	<path class="st13" d="M169.1,375.59V241.95c0-2.21,1.79-4,4-4h83.8c2.21,0,4,1.79,4,4v133.64H169.1z"/>
</g>
<g class="st1">
	<path class="st13" d="M189.28,237.95H173.1c-2.21,0-4,1.79-4,4v133.64h20.18V237.95z"/>
</g>
<g>
	<path class="st4" d="M270.66,103.48V72.84c0-2.21,1.79-4,4-4h39.14c2.21,0,4,1.79,4,4v74.34L270.66,103.48z"/>
</g>
<g class="st1">
	<path class="st4" d="M285.91,68.84h-11.25c-2.21,0-4,1.79-4,4v30.64l15.25,14.14V68.84z"/>
</g>
<g>
	<path class="st4" d="M241.99,313.48c-1.58,0-3.13-0.64-4.24-1.76c-0.28-0.27-0.53-0.58-0.75-0.91c-0.22-0.32-0.4-0.67-0.55-1.03
		c-0.15-0.37-0.27-0.74-0.34-1.13c-0.08-0.38-0.12-0.78-0.12-1.17c0-0.39,0.04-0.78,0.12-1.17c0.07-0.38,0.19-0.76,0.34-1.12
		c0.15-0.37,0.33-0.71,0.55-1.04c0.22-0.33,0.47-0.63,0.75-0.91c1.39-1.39,3.47-2.03,5.41-1.64c0.38,0.08,0.76,0.19,1.12,0.34
		c0.37,0.15,0.72,0.34,1.04,0.55c0.33,0.22,0.64,0.47,0.91,0.75c0.28,0.28,0.53,0.58,0.75,0.91c0.21,0.33,0.4,0.68,0.55,1.04
		c0.15,0.36,0.27,0.74,0.34,1.12c0.08,0.39,0.12,0.78,0.12,1.17c0,0.39-0.04,0.79-0.12,1.17c-0.07,0.39-0.19,0.76-0.34,1.13
		c-0.15,0.36-0.34,0.71-0.55,1.03c-0.22,0.33-0.47,0.64-0.75,0.91c-0.27,0.28-0.58,0.53-0.91,0.75c-0.32,0.22-0.67,0.4-1.04,0.55
		c-0.36,0.15-0.74,0.27-1.12,0.34C242.77,313.44,242.38,313.48,241.99,313.48z"/>
</g>
<g>
	<g>
		<path class="st9" d="M364.31,219.25L215.02,83.73L65.68,219.22c-1.64,1.48-4.17,1.36-5.65-0.27l-11.42-12.59
			c-1.48-1.64-1.36-4.17,0.27-5.65L206.62,57.59c4.77-4.32,12.04-4.32,16.8,0l157.69,143.14c1.64,1.48,1.76,4.01,0.27,5.65
			l-11.43,12.59C368.48,220.61,365.95,220.73,364.31,219.25z"/>
	</g>
</g>
</svg>
