<?xml version="1.0" encoding="utf-8"?>
<!-- Generator: Adobe Illustrator 24.0.2, SVG Export Plug-In . SVG Version: 6.00 Build 0)  -->
<svg version="1.1" id="Warstwa_1" xmlns="http://www.w3.org/2000/svg" xmlns:xlink="http://www.w3.org/1999/xlink" x="0px" y="0px"
	 viewBox="0 0 430 430" style="enable-background:new 0 0 430 430;" xml:space="preserve">
<style type="text/css">
	.st0{fill:#373867;}
	.st1{display:none;}
	.st2{display:inline;fill:none;stroke:#121331;stroke-width:7;stroke-linecap:round;stroke-linejoin:round;}
	.st3{display:none;fill:none;stroke:#121331;stroke-width:7;stroke-linecap:round;stroke-linejoin:round;stroke-miterlimit:10;}
	.st4{fill:#ebe6ef;}
	.st5{opacity:0.5;}
	.st6{fill:#4BB3FD;}
	.st7{fill:#121331;}
	.st8{fill:#181730;}
	.st9{fill:#F9C9C0;}
	.st10{opacity:0.4;}
	.st11{fill:#646E78;}
	.st12{fill:#A3A2A2;}
	.st13{fill:#FFC738;}
	.st14{fill:#2CA58D;}
	.st15{opacity:0.6;}
	.st16{fill:#F28BA8;}
	.st17{fill:#08A88A;}
	.st18{fill:#B26836;}
	.st19{fill:#92140C;}
	.st20{fill:#F24C00;}
	.st21{fill:none;stroke:#F9C9C0;stroke-width:12;stroke-linecap:square;stroke-linejoin:round;}
	.st22{opacity:0.3;}
	.st23{opacity:0.85;}
	.st24{fill:#FFFFFF;}
	.st25{fill:none;stroke:#121331;stroke-width:7;stroke-linecap:round;stroke-linejoin:round;stroke-miterlimit:10;}
	.st26{opacity:0.8;}
</style>
<g>
	<g>
		<path class="st4" d="M361.5,202.94v24.12c0,44.54-36.1,80.64-80.64,80.64H71.5c-1.66,0-3-1.34-3-3V203.66
			c0-44.93,36.43-81.36,81.36-81.36h131C325.4,122.3,361.5,158.4,361.5,202.94z"/>
	</g>
	<g class="st5">
		<path class="st4" d="M355.68,257.19c-0.41,1.03-0.85,2.05-1.31,3.06c-1.07,2.38-2.26,4.7-3.56,6.95
			c-0.65,1.13-1.32,2.23-2.02,3.32c-1.74,2.73-3.65,5.35-5.71,7.83c-0.41,0.5-0.83,0.99-1.25,1.48c-1.26,1.47-2.59,2.89-3.96,4.25
			c-14.59,14.59-34.74,23.62-57.01,23.62H71.5c-1.66,0-3-1.34-3-3V203.66c0-0.7,0.01-1.4,0.03-2.1c0.01-0.7,0.04-1.39,0.08-2.09
			c0.03-0.6,0.06-1.2,0.11-1.8c0.01-0.19,0.03-0.38,0.05-0.57c0.03-0.44,0.06-0.88,0.11-1.32c0.03-0.33,0.07-0.65,0.1-0.98
			c0-0.06,0.01-0.13,0.02-0.19c0.11-0.94,0.23-1.88,0.37-2.82c5.75,39.31,34.13,86.99,75.02,86.99l134.04,0.18
			c26.88,0,58.69-12.94,77.24-21.77H355.68z"/>
	</g>
	<g>
		<g>
			<path class="st0" d="M176.76,215c0,5.41-4.49,9.77-9.94,9.56c-4.93-0.19-9-4.26-9.19-9.19c-0.21-5.45,4.15-9.94,9.56-9.94
				C172.48,205.43,176.76,209.72,176.76,215L176.76,215z"/>
		</g>
		<g>
			<path class="st0" d="M225.62,215c0,5.41-4.49,9.77-9.94,9.56c-4.93-0.19-9-4.26-9.19-9.19c-0.21-5.45,4.15-9.94,9.56-9.94
				C221.34,205.43,225.62,209.72,225.62,215L225.62,215z"/>
		</g>
		<g>
			<path class="st0" d="M272.38,215c0,5.41-4.48,9.77-9.94,9.56c-4.93-0.19-9-4.26-9.19-9.19c-0.21-5.45,4.15-9.94,9.56-9.94
				C268.09,205.43,272.38,209.72,272.38,215L272.38,215z"/>
		</g>
	</g>
</g>
</svg>
