<?xml version="1.0" encoding="utf-8"?>
<!-- Generator: Adobe Illustrator 25.2.0, SVG Export Plug-In . SVG Version: 6.00 Build 0)  -->
<svg version="1.1" id="Warstwa_1" xmlns="http://www.w3.org/2000/svg" xmlns:xlink="http://www.w3.org/1999/xlink" x="0px" y="0px"
	 viewBox="0 0 430 430" style="enable-background:new 0 0 430 430;" xml:space="preserve">
<style type="text/css">
	.st0{fill:#121331;}
	.st1{fill:#373867;}
	.st2{opacity:0.5;fill:#373867;}
	.st3{fill:#92140C;}
	.st4{fill:#4BB3FD;}
	.st5{fill:#3A3347;}
	.st6{fill:#ebe6ef;}
	.st7{fill:#646e78;}
	.st8{opacity:0.5;fill:#ebe6ef;}
	.st9{opacity:0.5;fill:#3A3347;}
	.st10{fill:#FFC738;}
	.st11{fill:#B26836;}
	.st12{fill:#F28BA8;}
	.st13{opacity:0.5;fill:#F28BA8;}
	.st14{opacity:0.5;fill:#B26836;}
	.st15{opacity:0.5;fill:#646e78;}
	.st16{opacity:0.5;fill:#4BB3FD;}
	.st17{fill:#2CA58D;}
	.st18{opacity:0.5;fill:#2CA58D;}
	.st19{opacity:0.5;fill:#FFC738;}
	.st20{fill:#F9C9C0;}
	.st21{fill:none;stroke:#121331;stroke-width:7;stroke-linecap:round;stroke-linejoin:round;stroke-miterlimit:10;}
	.st22{opacity:0.5;}
	.st23{opacity:0.2;fill:#2CA58D;}
	.st24{fill:none;stroke:#373867;stroke-width:10;stroke-linecap:round;stroke-linejoin:round;stroke-miterlimit:10;}
	.st25{fill:none;stroke:#2CA58D;stroke-width:10;stroke-linecap:round;stroke-linejoin:round;stroke-miterlimit:10;}
	.st26{fill:none;stroke:#121331;stroke-width:10;stroke-linecap:round;stroke-linejoin:round;stroke-miterlimit:10;}
	.st27{fill:none;stroke:#ebe6ef;stroke-width:7;stroke-linecap:round;stroke-linejoin:round;stroke-miterlimit:10;}
</style>
<g>
	<path class="st7" d="M63.71,218.82l68.78-0.18l-0.18,129.76c0,19.88-16.11,35.99-35.99,35.99l0,0l0,0
		c-19.88,0-35.99-16.11-35.99-35.99l0.38-126.59C60.72,220.16,62.06,218.82,63.71,218.82z"/>
</g>
<path class="st6" d="M365.97,45.88L134.8,45.62c-1.66,0-3,1.34-3,3V348.4c0,19.88-16.11,35.99-35.99,35.99l0,0l0,0h236.66l0,0
	c0.11,0,0.22,0,0.33,0c19.88,0,35.99-16.11,35.99-35.98l0.18-299.52C368.97,47.23,367.63,45.88,365.97,45.88z"/>
<path class="st8" d="M149.34,45.88v302.51c0,19.88-16.11,35.99-35.99,35.99H95.8c19.88,0,35.99-16.11,35.99-35.99V48.66
	c0-1.67,1.37-3.03,3.05-3L149.34,45.88z"/>
<polygon class="st6" points="224.41,45.88 224.23,45.88 224.23,45.61 "/>
<polygon class="st6" points="23.78,45.61 24.3,45.88 23.78,45.88 "/>
<polygon class="st6" points="260.96,45.88 260.78,45.88 260.78,45.61 "/>
<path class="st7" d="M335.39,95.8H169.83c-1.93,0-3.5-1.57-3.5-3.5s1.57-3.5,3.5-3.5h165.56c1.93,0,3.5,1.57,3.5,3.5
	S337.32,95.8,335.39,95.8z"/>
<path class="st7" d="M335.39,255.8H169.83c-1.93,0-3.5-1.57-3.5-3.5s1.57-3.5,3.5-3.5h165.56c1.93,0,3.5,1.57,3.5,3.5
	S337.32,255.8,335.39,255.8z"/>
<path class="st7" d="M335.39,295.8H169.83c-1.93,0-3.5-1.57-3.5-3.5s1.57-3.5,3.5-3.5h165.56c1.93,0,3.5,1.57,3.5,3.5
	S337.32,295.8,335.39,295.8z"/>
<path class="st7" d="M335.39,335.8H169.83c-1.93,0-3.5-1.57-3.5-3.5s1.57-3.5,3.5-3.5h165.56c1.93,0,3.5,1.57,3.5,3.5
	S337.32,335.8,335.39,335.8z"/>
<path class="st7" d="M169.83,135.8c-1.93,0-3.49-1.56-3.5-3.49c-0.01-1.93,1.56-3.5,3.49-3.51l62.56-0.17c0,0,0.01,0,0.01,0
	c1.93,0,3.49,1.56,3.5,3.49c0.01,1.93-1.56,3.5-3.49,3.51L169.83,135.8C169.83,135.8,169.83,135.8,169.83,135.8z"/>
<path class="st7" d="M169.83,175.8c-1.93,0-3.49-1.56-3.5-3.49c-0.01-1.93,1.56-3.5,3.49-3.51l62.56-0.17c0,0,0.01,0,0.01,0
	c1.93,0,3.49,1.56,3.5,3.49c0.01,1.93-1.56,3.5-3.49,3.51L169.83,175.8C169.83,175.8,169.83,175.8,169.83,175.8z"/>
<path class="st7" d="M169.83,215.8c-1.93,0-3.49-1.56-3.5-3.49c-0.01-1.93,1.56-3.5,3.49-3.51l62.56-0.17c0,0,0.01,0,0.01,0
	c1.93,0,3.49,1.56,3.5,3.49c0.01,1.93-1.56,3.5-3.49,3.51L169.83,215.8C169.83,215.8,169.83,215.8,169.83,215.8z"/>
<path class="st1" d="M338.83,133.37c0-1.93-1.57-3.49-3.49-3.49l-62.56-0.1c0,0,0,0-0.01,0c-0.93,0-1.82,0.37-2.47,1.02
	c-0.66,0.66-1.03,1.55-1.03,2.48l0.06,78.32c0,1.93,1.57,3.5,3.5,3.5h62.62c0.93,0,1.82-0.37,2.48-1.03
	c0.66-0.66,1.02-1.55,1.02-2.48L338.83,133.37z"/>
</svg>
