<?xml version="1.0" encoding="utf-8"?>
<!-- Generator: Adobe Illustrator 25.3.1, SVG Export Plug-In . SVG Version: 6.00 Build 0)  -->
<svg xmlns="http://www.w3.org/2000/svg" viewBox="0 0 430 430">
  <defs>
    <style>
      .cls-1 {
        isolation: isolate;
      }

      .cls-2, .cls-3 {
        fill: #b26836;
      }

      .cls-11, .cls-16, .cls-3, .cls-5, .cls-9 {
        mix-blend-mode: multiply;
        opacity: 0.5;
      }

      .cls-4 {
        fill: #f28ba8;
      }

      .cls-13, .cls-5 {
        fill: #ffc738;
      }

      .cls-6 {
        fill: #646e78;
      }

      .cls-7 {
        fill: #ebe6ef;
      }

      .cls-8, .cls-9 {
        fill: #f9c9c0;
      }

      .cls-10, .cls-11 {
        fill: #3080e8;
      }

      .cls-12 {
        fill: #92140c;
      }

      .cls-14 {
        fill: #3a3347;
      }

      .cls-15, .cls-16 {
        fill: #373867;
      }
    </style>
  </defs>
  <g class="cls-1">
    <g id="Warstwa_1" data-name="Warstwa 1">
      <g>
        <g>
          <path class="cls-2" d="M348.06,154.4v22.39a45,45,0,0,1-21.88,38.62h0v14.26a23,23,0,0,1-23.26,22.9h-1.83a22.83,22.83,0,0,1-23.25-22.89V214.79h0c-.78-.5-1.55-1-2.3-1.56h0c-.74-.54-1.47-1.11-2.19-1.69s-1.41-1.21-2.09-1.84l-1-1a45,45,0,0,1-10-15c-.23-.55-.44-1.1-.64-1.66s-.46-1.34-.67-2a44.71,44.71,0,0,1-2-13.26V154.72q3.74-.84,7.17-1.81l.18,0q2.2-.62,4.29-1.29c.74-.22,1.45-.46,2.16-.7,1.41-.47,2.78-1,4.12-1.47,38.47-14.48,45.26-39.68,45.26-39.68,24.8,12.92,27.67,35.2,27.93,42.38C348.11,153.56,348.06,154.4,348.06,154.4Z"/>
          <path class="cls-3" d="M326.59,215.15h0l-1.28.73c-.43.24-.87.47-1.31.7s-.87.45-1.32.66c-1.35.63-2.73,1.19-4.14,1.7-.47.17-.94.33-1.42.48l-1.25.38-.26.07c-.47.13-.93.25-1.4.36s-1,.24-1.48.34l-.86.17a44.9,44.9,0,0,1-15.69-6.21h0a44.92,44.92,0,0,1-20.85-37.95V149.22a137.68,137.68,0,0,1-17.9,5.31v22.05a44.9,44.9,0,0,0,20.86,37.95h0v14.86h0a22.88,22.88,0,0,0,1.44,8,120.39,120.39,0,0,0,21.55-3.19c9.22-2.32,20.38-6.75,25.3-15v-4.11Z"/>
          <path class="cls-4" d="M392.47,287.55v23.16A11.27,11.27,0,0,1,381.21,322h-16c-14.07,1.1-21.57,4.18-27.29,7s-9.65,5.36-16.57,5.36H282.86c-13.82,0-15.65-10.17-44-12.36H224.63a11.28,11.28,0,0,1-11.27-11.27V287.55a57.87,57.87,0,0,1,57.87-57.88h6.61a22.94,22.94,0,0,0,23.25,22.9h1.83a23,23,0,0,0,23.26-22.9h8.42A57.87,57.87,0,0,1,392.47,287.55Z"/>
          <path class="cls-5" d="M279.74,237.44a22.88,22.88,0,0,1-1.44-8h-6.59c-.92,0-1.85,0-2.76.06s-1.82.1-2.72.19l-1.35.14c-.45,0-.9.11-1.34.18-.89.12-1.75.25-2.62.42h-.08a57.45,57.45,0,0,0-19.23,7.4c-.51.32-1,.64-1.54,1s-.84.56-1.26.86a7.28,7.28,0,0,0-.6.42,6.25,6.25,0,0,0-.61.44c-.32.23-.64.46-1,.71q-1.78,1.36-3.47,2.87l-.27.25-.24.22-.26.23-.6.57c-.19.17-.37.35-.55.53s-.28.27-.4.4l-.4.39-.12.13a.8.8,0,0,1-.13.13c-.79.82-1.55,1.65-2.29,2.51l-.25.29c-.15.18-.3.37-.46.55h0l-.45.55h0a3.92,3.92,0,0,0-.25.32c-.27.34-.55.68-.81,1a4.22,4.22,0,0,0-.27.36l-.22.3-.38.51c-.06.1-.14.2-.21.3a3.46,3.46,0,0,0-.22.31c-.14.19-.28.38-.4.58l-.28.4-.33.49c-.31.48-.62,1-.92,1.46l-.21.33c-.16.26-.31.52-.46.79l-.2.33q-1.41,2.44-2.58,5c-.19.42-.38.84-.55,1.26s-.37.86-.54,1.3c-.11.28-.22.55-.32.84-.18.48-.35,1-.52,1.44,0,.16-.11.31-.16.46l-.24.72c-.2.65-.4,1.29-.58,1.95-.08.24-.15.49-.21.73-.15.51-.27,1-.4,1.55-.09.36-.17.73-.26,1.1a.28.28,0,0,1,0,.09.76.76,0,0,0,0,.16c-.05.2-.09.4-.13.6l0,.16c-.06.28-.12.56-.17.84-.08.48-.17,1-.24,1.45-.05.29-.09.57-.13.86-.12.82-.22,1.66-.31,2.5,0,.24,0,.48-.07.72-.06.72-.11,1.44-.14,2.16,0,.2,0,.4,0,.59s0,.57,0,.86c0,.49,0,1,0,1.48v23.13a11.16,11.16,0,0,0,2.24,6.74c.22.28.45.56.68.82s.24.26.38.39a11.14,11.14,0,0,0,1.67,1.38c.29.2.6.39.92.57l1,.47a11.41,11.41,0,0,0,4.38.88H239.4l1.06.09,1,.1c-.71-5.22-1.36-11.33-1.71-17.79a132.78,132.78,0,0,1,1.26-28.64c1.75-10.29,5-18.38,9.76-24a24.78,24.78,0,0,1,6.1-6,37.68,37.68,0,0,1,7.38-4.18,49.29,49.29,0,0,1,13.84-3.62Z"/>
          <path class="cls-6" d="M348.06,154.4v-2.3c-.26-7.18-3.13-29.46-27.93-42.38,0,0-8.8,32.69-63.18,45l-2.87.62S234.65,98.13,258.77,84a10.64,10.64,0,0,1,10,.19c3.72,2.38,7.41,6.33,9.81,8.28a8.39,8.39,0,0,0,2.82,1.88c4.88,2.5,10.46-1.33,15.15-3.1,38.36-14.49,56.2,11.87,56.61,23.06C353.89,133.79,355.4,150,348.06,154.4Z"/>
          <path class="cls-7" d="M355.78,290.06c0-2.71-.13-5.25-.33-7.22-.23-2.39-.68-6.84-4.81-6.84h-.27a4.63,4.63,0,0,0-3,1.32,8.07,8.07,0,0,0-4.11-1.14h0a8.11,8.11,0,0,0-4.12,1.14,4.6,4.6,0,0,0-3-1.32h-.27c-4.14,0-4.58,4.45-4.82,6.84-.19,2-.31,4.52-.33,7.24v1.45c0,7.5,5.19,13.61,11.57,13.61h2c6.38,0,11.57-6.11,11.57-13.61v-1.32a.76.76,0,0,0,0-.15Z"/>
        </g>
        <g>
          <path class="cls-8" d="M172.08,153.3v22.37a45,45,0,0,1-21.85,38.57h0v14.25A22.92,22.92,0,0,1,127,251.35h-1.83a23.1,23.1,0,0,1-21.78-14.82,22.66,22.66,0,0,1-1.45-8V213.62h0c-.78-.5-1.55-1-2.3-1.56h0c-.74-.54-1.47-1.11-2.18-1.69s-1.41-1.2-2.09-1.83l-1-1A45.18,45.18,0,0,1,89,201.19a45.66,45.66,0,0,1-4.65-8.6c-.22-.55-.43-1.11-.63-1.66s-.46-1.35-.67-2a45,45,0,0,1-2-13.24v-22c2.49-.56,4.87-1.16,7.17-1.81l.17-.05c1.47-.41,2.9-.83,4.29-1.28.73-.23,1.44-.46,2.15-.71,1.41-.46,2.78-1,4.12-1.46,38.43-14.47,45.21-39.64,45.21-39.64,24.77,12.91,27.64,35.16,27.9,42.33C172.13,152.47,172.08,153.3,172.08,153.3Z"/>
          <path class="cls-9" d="M150.22,214.24h0L149,215l-1.31.7c-.45.23-.88.45-1.33.66-1.34.63-2.72,1.19-4.13,1.71l-1.43.47c-.41.14-.83.26-1.25.38l-.26.07c-.46.13-.93.25-1.39.36s-1,.24-1.49.34l-.86.17a44.92,44.92,0,0,1-15.68-6.21h0a44.88,44.88,0,0,1-20.85-38V148.31a134.63,134.63,0,0,1-17.9,5.31v22a44.89,44.89,0,0,0,20.86,38h0V228.5h0a22.66,22.66,0,0,0,1.45,8,120.2,120.2,0,0,0,21.54-3.19c9.22-2.32,20.38-6.75,25.3-15h0v-4.1Z"/>
          <path class="cls-10" d="M216.44,286.29v23.14a11.25,11.25,0,0,1-11.25,11.25H189.24c-14.05,1.11-21.55,4.19-27.26,7S152.34,333,145.43,333H107c-13.81,0-15.64-10.15-43.91-12.35H48.78a11.25,11.25,0,0,1-11.25-11.25V286.29a57.8,57.8,0,0,1,57.81-57.8h6.59a22.92,22.92,0,0,0,23.23,22.86H127a22.92,22.92,0,0,0,23.23-22.86h8.41A57.8,57.8,0,0,1,216.44,286.29Z"/>
          <path class="cls-11" d="M103.38,236.53a22.66,22.66,0,0,1-1.45-8H95.35c-.92,0-1.85,0-2.76.06s-1.82.1-2.72.19l-1.35.14c-.45.06-.9.11-1.34.18-.89.12-1.75.25-2.62.42h-.08a57.31,57.31,0,0,0-19.22,7.4c-.52.32-1,.64-1.54,1s-.85.56-1.27.86a7.28,7.28,0,0,0-.6.42c-.21.13-.4.28-.61.44s-.64.46-1,.71q-1.8,1.35-3.48,2.87l-.27.24-.24.23-.26.23-.6.57-.55.53-.4.4-.39.39a1.59,1.59,0,0,0-.13.13l-.12.13c-.8.82-1.56,1.65-2.3,2.51-.08.1-.17.19-.24.29l-.47.55h0l-.45.54h0a3.56,3.56,0,0,0-.26.31c-.27.35-.54.69-.8,1l-.28.36-.22.3c-.12.16-.25.33-.37.51l-.22.29-.22.32c-.13.19-.27.38-.4.58l-.28.4c-.11.16-.22.32-.32.49-.32.48-.63,1-.93,1.45-.06.12-.13.22-.2.34l-.47.78c-.06.12-.13.23-.19.34a55.51,55.51,0,0,0-2.59,5c-.19.42-.37.84-.55,1.26l-.54,1.3c-.11.28-.21.55-.31.83-.18.48-.36,1-.53,1.45-.05.15-.1.31-.16.46s-.16.48-.23.71c-.21.65-.41,1.3-.59,2-.08.24-.14.48-.21.73-.14.51-.27,1-.39,1.54s-.18.74-.26,1.11a.24.24,0,0,1,0,.08l0,.16c0,.2-.09.41-.13.61a1.1,1.1,0,0,1,0,.16c-.06.28-.11.55-.16.83-.09.48-.17,1-.25,1.46,0,.28-.09.56-.13.85-.12.83-.22,1.66-.3,2.5,0,.25,0,.48-.07.73-.06.71-.12,1.44-.15,2.15l0,.6c0,.28,0,.56,0,.85,0,.49,0,1,0,1.48v23.13a11.22,11.22,0,0,0,2.23,6.74c.22.28.45.56.69.83a4.36,4.36,0,0,0,.37.38,11,11,0,0,0,1.67,1.38c.3.2.61.39.92.57s.65.33,1,.47a11.43,11.43,0,0,0,4.39.88H63.05l1.06.09,1,.1c-.71-5.22-1.36-11.33-1.71-17.78a132.87,132.87,0,0,1,1.26-28.65c1.75-10.28,5-18.37,9.76-24a25,25,0,0,1,6.1-6,37.18,37.18,0,0,1,7.38-4.18,49.29,49.29,0,0,1,13.84-3.62Z"/>
          <path class="cls-12" d="M172.08,153.3V151c-.26-7.17-3.13-29.42-27.9-42.33,0,0-8.79,32.65-63.11,45l-2.86.62S58.8,97.1,82.89,83a10.59,10.59,0,0,1,10,.2c3.72,2.37,7.45,6.25,9.79,8.26a9.28,9.28,0,0,0,6.41,2.21c3.23-.16,7.43-1.68,12.11-3.45,38.31-14.47,55.58,11.88,56,23C177.9,132.72,179.41,148.91,172.08,153.3Z"/>
        </g>
        <g>
          <path class="cls-13" d="M265.25,148.66V174a50.85,50.85,0,0,1-24.73,43.65v15.72c0,.1,0,.21,0,.33a0,0,0,0,1,0,0,.07.07,0,0,1,0,.05H250a66.34,66.34,0,0,1,11.45,1A43,43,0,0,1,219,270.93H208.64a43.06,43.06,0,0,1-42.48-36h0a63.88,63.88,0,0,1,12.23-1.15h7.46a.07.07,0,0,1,0-.05,0,0,0,0,1,0,0c0-.12,0-.23,0-.33V216.91A50.8,50.8,0,0,1,162.27,174V149c61.46-13.91,71.42-50.86,71.42-50.86,28,14.61,31.27,39.78,31.56,47.9C265.31,147.72,265.25,148.66,265.25,148.66Z"/>
          <path class="cls-5" d="M237.59,219.25c-.5.26-1,.51-1.51.74-1,.48-2,.93-3.08,1.34l-1.58.6a51.46,51.46,0,0,1-7.55,2,50.6,50.6,0,0,1-17.75-7h0A50.8,50.8,0,0,1,182.52,174V143a155,155,0,0,1-20.25,6V174a50.8,50.8,0,0,0,23.6,42.94h0v16.82h-7.46a63.88,63.88,0,0,0-12.23,1.15h0c.07.4.14.8.22,1.2s.18.91.28,1.36.16.71.26,1.05c0,.1.05.21.08.31.14.57.31,1.12.48,1.68,0,.12.07.24.1.36s.09.25.13.38.17.51.26.76h0c.13.38.26.76.41,1.14s.28.75.44,1.12a7.14,7.14,0,0,1-.31-.81c.09.28.2.55.31.81h0c.38.93.79,1.84,1.24,2.74a55.11,55.11,0,0,1,15.62-4.1,134.59,134.59,0,0,0,26.2-3.68c10.45-2.63,23.08-7.65,28.64-17v-4.63C239.56,218.19,238.58,218.73,237.59,219.25Z"/>
          <path class="cls-14" d="M288.5,211.37c0-.66-.07-1.32-.11-2l0-.44c0-.47-.05-.94-.09-1.41-.14-2.26-.31-4.55-.5-6.85-.13-1.74-.29-3.49-.45-5.26-.14-1.54-.3-3.08-.46-4.64s-.29-2.83-.46-4.26c0-.3-.06-.61-.1-.92q-.23-2.07-.48-4.14a.59.59,0,0,0,0-.14c-.22-1.85-.46-3.69-.7-5.56-.22-1.63-.43-3.27-.66-4.91-.14-1-.29-2-.44-3q-.94-6.63-2.07-13.41c-.16-1-.33-2.05-.5-3.07q-.92-5.46-1.93-11c-2.52-14.25-6-26-11.06-35.29h0a53.93,53.93,0,0,0-8.27-11.53C250.33,83.21,236.45,78.1,216.47,78c-24.33,0-42.25,12.43-53.86,35.74h0c-9,18-14.2,42.6-15.69,72.94-.33,2.92-.62,5.78-.9,8.57q-.27,2.79-.51,5.5c-.3,3.46-.55,6.83-.76,10.16,0,.74-.09,1.48-.13,2.22-.07,1.15-.13,2.3-.18,3.44-.08,1.71-.15,3.42-.2,5.13l-.06,2.55c0,1,0,1.91-.05,2.87,0,.75,0,1.5,0,2.25,0,4.59.06,9.22.27,13.95a65,65,0,0,1,21.78-8.38h0a63.88,63.88,0,0,1,12.23-1.15h7.46V216.92h0A50.8,50.8,0,0,1,162.27,174V149c61.46-13.91,71.42-50.86,71.42-50.86,28,14.61,31.27,39.78,31.56,47.9V174a50.85,50.85,0,0,1-24.73,43.65v16.13H250a66.34,66.34,0,0,1,11.45,1,65,65,0,0,1,27,11.51c.07-1.23.14-2.48.2-3.73,0-.63.06-1.26.09-1.89.16-3.69.22-7.46.22-11.3Q289,220.58,288.5,211.37Z"/>
          <path class="cls-15" d="M315.45,299.16v26.18a12.72,12.72,0,0,1-12.73,12.73H284.67c-31.84,2.5-33.94,14-49.58,14H191.56c-15.63,0-17.7-11.49-49.68-14H125.73A12.72,12.72,0,0,1,113,325.34V299.16c0-.56,0-1.12,0-1.67,0-.33,0-.65,0-1s0-.44,0-.67c0-.81.09-1.63.16-2.44,0-.28,0-.54.08-.82.1-.95.21-1.9.35-2.83,0-.33.09-.64.14-1,.09-.56.18-1.11.28-1.65.06-.32.12-.63.19-.95l.21-1a.36.36,0,0,0,0-.1c.1-.42.19-.83.29-1.25.14-.59.29-1.17.45-1.75.07-.28.15-.55.24-.83.2-.74.43-1.47.66-2.21l.27-.81.18-.51c.19-.56.39-1.1.59-1.64l.36-.94c.2-.5.4-1,.61-1.48s.4-.95.62-1.42a62.22,62.22,0,0,1,2.92-5.69q.48-.84,1-1.65c.33-.55.69-1.11,1-1.65.12-.19.24-.37.37-.55.25-.38.51-.75.77-1.11l.25-.36L126,260c.1-.14.2-.27.31-.4.3-.4.61-.79.92-1.18a3.07,3.07,0,0,1,.28-.35q.51-.63,1-1.26c.08-.11.18-.21.27-.33.84-1,1.7-1.91,2.6-2.83l.28-.29.9-.9.62-.6.68-.64.87-.79c1.27-1.14,2.58-2.23,3.94-3.25.35-.28.71-.55,1.08-.8a8.17,8.17,0,0,1,.69-.51c.22-.17.45-.32.68-.47.47-.34.95-.66,1.43-1s1.15-.75,1.74-1.11a65,65,0,0,1,21.78-8.38c.07.4.14.8.22,1.2s.18.91.28,1.36.16.71.26,1c.2.8.41,1.57.66,2.35s.5,1.53.8,2.28c.13.38.28.76.44,1.13a43.05,43.05,0,0,0,39.82,26.66H219a43,43,0,0,0,42.5-36.19,65.47,65.47,0,0,1,52.86,52.41A66,66,0,0,1,315.45,299.16Z"/>
          <path class="cls-16" d="M166.16,234.89a65,65,0,0,0-21.78,8.38c-.59.37-1.17.73-1.74,1.11s-1,.64-1.43,1a7.63,7.63,0,0,0-.68.48,8,8,0,0,0-.69.5c-.37.26-.73.52-1.08.8-1.36,1-2.67,2.11-3.94,3.25l-.3.28-.27.25c-.11.08-.2.18-.3.26l-.68.64-.62.61-.45.44-.45.45-.14.15-.14.15c-.9.92-1.76,1.86-2.6,2.83-.09.12-.19.22-.27.33s-.35.42-.53.62h0c-.16.21-.33.42-.51.62h0a3.07,3.07,0,0,0-.28.35c-.31.39-.62.78-.92,1.18-.11.13-.21.26-.31.4s-.16.23-.25.34-.28.38-.42.58l-.24.33-.25.36c-.16.21-.31.43-.46.65s-.2.3-.31.46-.25.36-.37.55c-.35.55-.71,1.1-1,1.65l-.24.38c-.18.29-.35.59-.52.89l-.23.38a62.22,62.22,0,0,0-2.92,5.69c-.22.47-.42.95-.62,1.42s-.41,1-.61,1.48l-.36.94c-.2.54-.4,1.08-.59,1.64l-.18.51-.27.81c-.23.74-.46,1.47-.66,2.21-.09.28-.17.55-.24.83-.16.58-.31,1.16-.45,1.75-.1.42-.19.83-.29,1.25a.36.36,0,0,1,0,.1l0,.18-.15.68,0,.18c-.07.32-.13.63-.19.95-.1.54-.19,1.09-.28,1.65,0,.32-.1.64-.14,1-.14.93-.25,1.88-.35,2.83,0,.28,0,.55-.08.82-.07.81-.13,1.63-.16,2.44,0,.23,0,.45,0,.67s0,.64,0,1c0,.55,0,1.11,0,1.67v26.18a12.71,12.71,0,0,0,2.53,7.63q.38.48.78.93c.13.14.26.29.42.44a13.51,13.51,0,0,0,1.89,1.56c.33.22.69.44,1,.64s.73.37,1.11.53a12.8,12.8,0,0,0,5,1h16.15l1.2.11,1.17.11c-.8-5.9-1.54-12.82-1.93-20.12a149.52,149.52,0,0,1,1.42-32.42c2-11.63,5.69-20.78,11-27.19a28.18,28.18,0,0,1,6.91-6.81,42.23,42.23,0,0,1,8.37-4.73c-.45-.9-.86-1.8-1.24-2.74h0a8.11,8.11,0,0,1-.31-.82,1.69,1.69,0,0,1-.13-.31c-.15-.38-.28-.76-.41-1.13h0c-.08-.25-.17-.5-.25-.76s-.08-.25-.13-.38-.07-.23-.1-.36c-.18-.56-.34-1.11-.48-1.68a2.81,2.81,0,0,1-.08-.31c-.1-.34-.18-.7-.26-1s-.2-.91-.28-1.36-.15-.8-.22-1.2Z"/>
          <path class="cls-7" d="M218.54,292.89a5.75,5.75,0,1,1-5.75-5.74A5.76,5.76,0,0,1,218.54,292.89Z"/>
          <path class="cls-7" d="M218.54,313.7a5.75,5.75,0,1,1-5.75-5.75A5.76,5.76,0,0,1,218.54,313.7Z"/>
          <path class="cls-7" d="M218.54,334.5a5.75,5.75,0,1,1-5.75-5.74A5.75,5.75,0,0,1,218.54,334.5Z"/>
        </g>
      </g>
    </g>
  </g>
</svg>