<?xml version="1.0" encoding="utf-8"?>
<!-- Generator: Adobe Illustrator 24.0.2, SVG Export Plug-In . SVG Version: 6.00 Build 0)  -->
<svg xmlns="http://www.w3.org/2000/svg" viewBox="0 0 430 430">
  <g style="isolation: isolate">
    <g id="Warstwa_1" data-name="Warstwa 1">
      <g>
        <path d="M377.73,282a3.5,3.5,0,0,0-2.29-2.79l-24.09-8.57,11-23.08A3.5,3.5,0,0,0,362,244a84.4,84.4,0,0,0-17.42-17.43,3.49,3.49,0,0,0-3.6-.35l-23.08,11-8.56-24.09a3.5,3.5,0,0,0-2.79-2.29,85.45,85.45,0,0,0-11.89-.88q-4.1,0-8.16.34c-.77.07-1.54.15-2.3.24s-1.53.19-2.29.3a3.49,3.49,0,0,0-2.79,2.29l-8.57,24.09-23.08-11a3.52,3.52,0,0,0-3.6.36q-.85.63-1.68,1.29l-.77.61c-.52.41-1,.84-1.54,1.27q-1.8,1.51-3.5,3.12c-.67.62-1.33,1.27-2,1.93s-1.1,1.12-1.63,1.69-1,1-1.42,1.54c-.13.15-.27.3-.39.45-.39.43-.76.86-1.13,1.3-.17.19-.34.39-.5.59-.47.56-.92,1.12-1.37,1.69s-1,1.29-1.5,1.95a3.5,3.5,0,0,0-.36,3.59l1.25,2.62L237,270.67,213,279.24a3.5,3.5,0,0,0-2.29,2.79,85.72,85.72,0,0,0,0,24.64,3.5,3.5,0,0,0,2.29,2.79L237,318l-11,23.08a3.5,3.5,0,0,0,.35,3.59,84.5,84.5,0,0,0,17.44,17.43,3.5,3.5,0,0,0,3.59.35l23.07-11,8.56,24.08a3.5,3.5,0,0,0,2.79,2.29,85.79,85.79,0,0,0,24.65,0,3.5,3.5,0,0,0,2.79-2.29l8.56-24.08,23.07,11a3.5,3.5,0,0,0,3.59-.35A84.5,84.5,0,0,0,362,344.69a3.5,3.5,0,0,0,.35-3.59l-11-23.08,24.09-8.56a3.5,3.5,0,0,0,2.29-2.79,85.72,85.72,0,0,0,0-24.64Zm-83.1,35.66h-.44a23.36,23.36,0,0,1,0-46.71h.44a23.35,23.35,0,0,1,0,46.69Z" style="fill: #373867"/>
        <path d="M269,173.31l-16.84-11.55L269,150.23a3.48,3.48,0,0,0,1.49-3.35,109.5,109.5,0,0,0-12.13-37.45,3.52,3.52,0,0,0-3.09-1.85h-.09l-20.45.56,6.85-19.24a3.51,3.51,0,0,0-.77-3.6A111.07,111.07,0,0,0,209,62.17a3.51,3.51,0,0,0-3.66.38L189.16,75l-5.78-19.59A3.48,3.48,0,0,0,180.64,53a112.16,112.16,0,0,0-39.36,0,3.47,3.47,0,0,0-2.74,2.46L132.77,75,116.58,62.55a3.51,3.51,0,0,0-3.66-.38A111,111,0,0,0,81.1,85.31a3.49,3.49,0,0,0-.77,3.6l6.84,19.24-20.44-.56a3.5,3.5,0,0,0-3.18,1.84,109.43,109.43,0,0,0-12.14,37.45,3.51,3.51,0,0,0,1.5,3.35l16.83,11.53L52.91,173.31a3.51,3.51,0,0,0-1.5,3.35,109.42,109.42,0,0,0,12.15,37.46A3.46,3.46,0,0,0,66.74,216l20.43-.57-6.83,19.23a3.48,3.48,0,0,0,.76,3.59,110.22,110.22,0,0,0,31.81,23.15,3.51,3.51,0,0,0,3.66-.38l16.2-12.47,5.79,19.61a3.5,3.5,0,0,0,2.73,2.46,112.11,112.11,0,0,0,39.35,0,3.5,3.5,0,0,0,2.73-2.46l5.79-19.61L205.35,261a3.52,3.52,0,0,0,3.65.38,110.33,110.33,0,0,0,31.82-23.15,3.47,3.47,0,0,0,.77-3.59l-1.74-4.88-5.1-14.35,20.43.57a3.5,3.5,0,0,0,3.18-1.84,109.71,109.71,0,0,0,12.15-37.46A3.48,3.48,0,0,0,269,173.31ZM161,193.79a32,32,0,1,1,32-32A32.06,32.06,0,0,1,161,193.79Z" style="fill: #373867"/>
        <path d="M161,193.79a32,32,0,1,1,0-64V51.23A111.49,111.49,0,0,0,141.27,53a3.5,3.5,0,0,0-2.74,2.46L132.77,75,116.58,62.55a3.53,3.53,0,0,0-3.67-.38A111.17,111.17,0,0,0,81.09,85.31a3.53,3.53,0,0,0-.77,3.6l6.85,19.24-20.44-.56a3.49,3.49,0,0,0-3.18,1.84,109.22,109.22,0,0,0-12.14,37.45,3.5,3.5,0,0,0,1.49,3.35l16.84,11.53L52.9,173.31a3.5,3.5,0,0,0-1.49,3.35,109.42,109.42,0,0,0,12.15,37.46A3.46,3.46,0,0,0,66.74,216l20.43-.57-6.84,19.23a3.51,3.51,0,0,0,.77,3.59,110.22,110.22,0,0,0,31.81,23.15,3.49,3.49,0,0,0,3.65-.38l16.21-12.47,5.78,19.61a3.53,3.53,0,0,0,2.74,2.46A110.44,110.44,0,0,0,161,272.32Z" style="fill: #373867;opacity: 0.5;mix-blend-mode: multiply"/>
        <path d="M294.63,317.69h-.44a23.36,23.36,0,1,1,0-46.71h.44V209.93a86,86,0,0,0-12.76.88,3.52,3.52,0,0,0-2.79,2.29l-8.56,24.09-23.09-11a3.5,3.5,0,0,0-3.59.36A85.19,85.19,0,0,0,226.41,244a3.5,3.5,0,0,0-.35,3.59l11,23.08L213,279.24a3.49,3.49,0,0,0-2.29,2.79,84.77,84.77,0,0,0,0,24.64,3.49,3.49,0,0,0,2.29,2.79L237,318l-11,23.08a3.5,3.5,0,0,0,.35,3.59,84.25,84.25,0,0,0,17.44,17.43,3.48,3.48,0,0,0,3.58.35l23.07-11,8.57,24.08a3.5,3.5,0,0,0,2.79,2.29,85.7,85.7,0,0,0,12.32.89h.44Z" style="fill: #373867;opacity: 0.5;mix-blend-mode: multiply"/>
      </g>
    </g>
  </g>
</svg>
