<?xml version="1.0" encoding="utf-8"?>
<!-- Generator: Adobe Illustrator 25.3.1, SVG Export Plug-In . SVG Version: 6.00 Build 0)  -->
<svg xmlns="http://www.w3.org/2000/svg" viewBox="0 0 430 430">
  <g style="isolation: isolate">
    <g id="Warstwa_1" data-name="Warstwa 1">
      <g>
        <path d="M324.65,111,265.31,51.64a3.54,3.54,0,0,0-2.48-1h-155a3.5,3.5,0,0,0-3.5,3.5V375.88a3.5,3.5,0,0,0,3.5,3.5H322.17a3.5,3.5,0,0,0,3.5-3.5V113.46A3.45,3.45,0,0,0,324.65,111Z" style="fill: #ebe6ef"/>
        <path d="M325.66,113.45a3.47,3.47,0,0,0-1-2.46L265.31,51.64a3.51,3.51,0,0,0-2.47-1H242.06v81a2,2,0,0,0,2,2h81.61V113.46Z" style="fill: #ebe6ef;opacity: 0.5;mix-blend-mode: multiply"/>
        <path d="M325.67,113.47a3.5,3.5,0,0,0-1-2.48L265.31,51.64a3.49,3.49,0,0,0-2.49-1h-3.49v62.84a3.5,3.5,0,0,0,3.5,3.5h62.84v-3.5Z" style="fill: #646e78"/>
        <path d="M291.59,316.73H188.79a3.5,3.5,0,1,1,0-7h102.8a3.5,3.5,0,0,1,0,7Z" style="fill: #373867"/>
        <path d="M148.8,326.23a3.44,3.44,0,0,1-2.47-1l-8.63-8.62a3.5,3.5,0,0,1,5-4.95l6.15,6.15,16.51-16.51a3.5,3.5,0,0,1,4.95,5l-19,19A3.44,3.44,0,0,1,148.8,326.23Z" style="fill: #373867"/>
        <path d="M291.59,264.93H188.79a3.5,3.5,0,0,1,0-7h102.8a3.5,3.5,0,0,1,0,7Z" style="fill: #373867"/>
        <path d="M148.8,274.43a3.44,3.44,0,0,1-2.47-1l-8.63-8.62a3.5,3.5,0,1,1,5-4.95L148.8,266l16.51-16.51a3.5,3.5,0,0,1,4.95,4.95l-19,19A3.44,3.44,0,0,1,148.8,274.43Z" style="fill: #373867"/>
        <path d="M291.59,213.13H188.79a3.5,3.5,0,1,1,0-7h102.8a3.5,3.5,0,0,1,0,7Z" style="fill: #373867"/>
        <path d="M148.8,222.63a3.44,3.44,0,0,1-2.47-1L137.7,213a3.5,3.5,0,0,1,5-4.95l6.15,6.15,16.51-16.51a3.5,3.5,0,1,1,4.95,5l-19,19A3.44,3.44,0,0,1,148.8,222.63Z" style="fill: #373867"/>
        <path d="M291.59,161.33H188.79a3.5,3.5,0,0,1,0-7h102.8a3.5,3.5,0,0,1,0,7Z" style="fill: #373867"/>
        <path d="M148.8,170.83a3.44,3.44,0,0,1-2.47-1l-8.63-8.62a3.5,3.5,0,0,1,5-5l6.15,6.15,16.51-16.51a3.5,3.5,0,0,1,4.95,4.95l-19,19A3.44,3.44,0,0,1,148.8,170.83Z" style="fill: #373867"/>
      </g>
    </g>
  </g>
</svg>
