<?xml version="1.0" encoding="utf-8"?>
<!-- Generator: Adobe Illustrator 24.0.2, SVG Export Plug-In . SVG Version: 6.00 Build 0)  -->
<svg xmlns="http://www.w3.org/2000/svg" viewBox="0 0 430 430">
  <defs>
    <style>
      .cls-1 {
        isolation: isolate;
      }

      .cls-2, .cls-3 {
        fill: #373867;
      }

      .cls-3 {
        mix-blend-mode: multiply;
        opacity: 0.5;
      }
    </style>
  </defs>
  <g class="cls-1">
    <g id="Warstwa_1" data-name="Warstwa 1">
      <g>
        <path class="cls-2" d="M40.11,322.05a2.07,2.07,0,0,0,3.87.71l0-.06.11-.26s0,0,0-.05A64.75,64.75,0,0,1,52.77,308l.22-.29c.27-.34.54-.68.83-1C99.07,252,232,257.41,251.16,258.49l.34,0,.72.05.37,0h.09a2.54,2.54,0,0,1,.43,0l.36,0-.82,87.55a2,2,0,0,0,3.41,1.45L389,217.16a3,3,0,0,0,0-4.28L381,205,256,82.36a2,2,0,0,0-3.4,1.43v79.05s-192.14-20-212.15,155.72v0c0,.2-.05.42-.08.67-.05.42-.1.9-.15,1.43,0,.16,0,.32,0,.48h0c0,.25-.06.5-.08.75Z"/>
        <g>
          <path class="cls-2" d="M381,205l8,7.88a3,3,0,0,1,0,4.28L256.06,347.64a2,2,0,0,1-3.4-1.45l.15-16.21Z"/>
          <path class="cls-3" d="M381,205l8,7.88a3,3,0,0,1,0,4.28L256.06,347.64a2,2,0,0,1-3.4-1.45l.15-16.21Z"/>
        </g>
        <path class="cls-3" d="M253.65,238.39l-.18,20.25-.36,0a2.54,2.54,0,0,0-.43,0h-.09l-.37,0-.72-.05-.34,0C232,257.28,99.05,251,53.82,306.71c-.29.34-.56.68-.83,1l-.22.29a64.75,64.75,0,0,0-8.63,14.37s0,0,0,.05l-.11.26,0,.06a2.07,2.07,0,0,1-3.87-.71c0-.32,0-.64.09-.94l0-.43c.05-.53.1-1,.15-1.43,0-.25,0-.47.08-.67v0c.65-5.13,1.13-8.38,1.44-10.36s.47-2.68.47-2.68c20.31-42.59,99-61.17,99-61.17C211.11,231.89,253.65,238.39,253.65,238.39Z"/>
      </g>
    </g>
  </g>
</svg>

