<?xml version="1.0" encoding="UTF-8"?>
<svg xmlns="http://www.w3.org/2000/svg" xmlns:xlink="http://www.w3.org/1999/xlink" viewBox="0 0 60 60" width="60px" height="60px">
<g id="surface128042513">
<path style=" stroke:none;fill-rule:nonzero;fill:rgb(85.09804%,85.09804%,85.09804%);fill-opacity:1;" d="M 30 4 C 15.664062 4 4 15.664062 4 30 C 4 44.335938 15.664062 56 30 56 C 44.335938 56 56 44.335938 56 30 C 56 15.664062 44.335938 4 30 4 Z M 23.332031 12 L 36.664062 12 C 42.914062 12 48 17.085938 48 23.332031 L 48 36.664062 C 48 42.914062 42.914062 48 36.667969 48 L 23.335938 48 C 17.085938 48 12 42.914062 12 36.667969 L 12 23.335938 C 12 17.085938 17.085938 12 23.332031 12 Z M 23.332031 16 C 19.289062 16 16 19.292969 16 23.335938 L 16 36.667969 C 16 40.710938 19.292969 44 23.335938 44 L 36.667969 44 C 40.710938 44 44 40.707031 44 36.664062 L 44 23.332031 C 44 19.289062 40.707031 16 36.664062 16 Z M 39.335938 19.332031 C 40.070312 19.332031 40.667969 19.929688 40.667969 20.664062 C 40.667969 21.398438 40.070312 22 39.335938 22 C 38.601562 22 38 21.398438 38 20.664062 C 38 19.929688 38.601562 19.332031 39.335938 19.332031 Z M 30 20 C 35.515625 20 40 24.484375 40 30 C 40 35.515625 35.515625 40 30 40 C 24.484375 40 20 35.515625 20 30 C 20 24.484375 24.484375 20 30 20 Z M 30 24 C 26.6875 24 24 26.6875 24 30 C 24 33.3125 26.6875 36 30 36 C 33.3125 36 36 33.3125 36 30 C 36 26.6875 33.3125 24 30 24 Z M 30 24 "/>
</g>
</svg>
