<?xml version="1.0" encoding="UTF-8"?>
<svg xmlns="http://www.w3.org/2000/svg" xmlns:xlink="http://www.w3.org/1999/xlink" viewBox="0 0 60 60" width="60px" height="60px">
<g id="surface128046006">
<path style=" stroke:none;fill-rule:nonzero;fill:rgb(85.09804%,85.09804%,85.09804%);fill-opacity:1;" d="M 30 2.398438 C 14.78125 2.398438 2.398438 14.78125 2.398438 30 C 2.398438 45.21875 14.78125 57.601562 30 57.601562 C 45.21875 57.601562 57.601562 45.21875 57.601562 30 C 57.601562 14.78125 45.21875 2.398438 30 2.398438 Z M 43.484375 24.628906 C 43.496094 24.910156 43.503906 25.199219 43.503906 25.488281 C 43.503906 34.269531 36.816406 44.398438 24.589844 44.398438 C 20.835938 44.398438 17.339844 43.300781 14.398438 41.414062 C 14.917969 41.476562 15.445312 41.503906 15.984375 41.503906 C 19.101562 41.503906 21.96875 40.445312 24.238281 38.660156 C 21.332031 38.609375 18.878906 36.683594 18.03125 34.046875 C 18.4375 34.125 18.851562 34.164062 19.28125 34.164062 C 19.890625 34.164062 20.476562 34.085938 21.03125 33.929688 C 17.992188 33.316406 15.703125 30.636719 15.703125 27.414062 C 15.703125 27.382812 15.703125 27.355469 15.703125 27.328125 C 16.597656 27.828125 17.625 28.125 18.714844 28.160156 C 16.929688 26.96875 15.757812 24.933594 15.757812 22.628906 C 15.757812 21.410156 16.082031 20.269531 16.65625 19.285156 C 19.9375 23.304688 24.835938 25.953125 30.359375 26.230469 C 30.242188 25.742188 30.183594 25.238281 30.183594 24.714844 C 30.183594 21.046875 33.160156 18.070312 36.832031 18.070312 C 38.742188 18.070312 40.46875 18.875 41.683594 20.167969 C 43.195312 19.871094 44.621094 19.316406 45.902344 18.558594 C 45.40625 20.105469 44.351562 21.410156 42.980469 22.234375 C 44.324219 22.070312 45.605469 21.714844 46.796875 21.1875 C 45.910156 22.519531 44.78125 23.691406 43.484375 24.628906 Z M 43.484375 24.628906 "/>
</g>
</svg>
