<?xml version="1.0" encoding="utf-8"?>
<!-- Generator: Adobe Illustrator 25.3.1, SVG Export Plug-In . SVG Version: 6.00 Build 0)  -->

<svg xmlns="http://www.w3.org/2000/svg" viewBox="0 0 430 430">
  <defs>
    <style>
      .cls-1 {
        isolation: isolate;
      }

      .cls-2, .cls-3 {
        fill: #faddd1;
      }

      .cls-3, .cls-5 {
        mix-blend-mode: multiply;
        opacity: 0.5;
      }

      .cls-4, .cls-5 {
        fill: #373867;
      }
    </style>
  </defs>
  <g class="cls-1">
    <g id="Warstwa_1" data-name="Warstwa 1">
      <g>
        <g>
          <path class="cls-2" d="M350.15,230.43c10.71,0,22.38,7.26,22.38,18V255c0,10.71-7.95,19.38-18.66,19.38l-13.13.73v.06c10.11.66,20.1,8.33,20.1,18.61v3.46A18.38,18.38,0,0,1,342.05,316l-13.08.18s17.4,2.52,16.83,16a16.1,16.1,0,0,1-15.4,15.5,3.27,3.27,0,0,1-.44,0H237.7a75.24,75.24,0,0,1-29.27-5.93c-2.94-1.25-6.26-2.73-10-4.51-18-8.64-12.24-10.8-52.92-10.8v-130h26.32a3,3,0,0,0,.67-.07c3.82-.81,38.11-9.05,57.7-46.83a41.21,41.21,0,0,0,4.59-19l-.06-36.8s.24-10.72,15.36-11.44S277,98.91,277.31,111.51c.33,11.52,0,59.4,0,59.4s-1.8,15.48,21.6,15.48h54.23A19.79,19.79,0,0,1,372.83,206v3.84C372.83,220.5,360.86,230.43,350.15,230.43Z"/>
          <path class="cls-3" d="M208.43,341.74a75.24,75.24,0,0,0,29.27,5.93H330a3.27,3.27,0,0,0,.44,0,16.1,16.1,0,0,0,15.4-15.5,12.79,12.79,0,0,0-4.9-10.8c-88.83,13.35-116,1.94-140.6-15.37-28.42-20-26.93-73.56-21.71-111.27a58.23,58.23,0,0,1-6.05,1.71,3,3,0,0,1-.67.07H145.55v130c40.68,0,34.92,2.16,52.92,10.8C202.17,339,205.49,340.49,208.43,341.74Z"/>
          <path class="cls-3" d="M262.65,230.06s32.55-10.46,75.52,0C338.17,230.06,301.9,237.81,262.65,230.06Z"/>
          <path class="cls-3" d="M262,274.31s30.57-9.24,70.95,0C333,274.31,298.88,281.15,262,274.31Z"/>
          <path class="cls-3" d="M262.65,314.68s25.32-8.18,58.76,0C321.41,314.68,293.19,320.74,262.65,314.68Z"/>
        </g>
        <g>
          <rect class="cls-4" x="57.17" y="178.11" width="88.38" height="154.44" rx="3"/>
          <path class="cls-5" d="M105.67,332.55H60.17a3,3,0,0,1-3-3V181.11a3,3,0,0,1,3-3H88.84c-7.08,11.56-15.25,29.75-12.58,84.41C77.49,287.75,86.41,317.66,105.67,332.55Z"/>
        </g>
      </g>
    </g>
  </g>
</svg>
