<?xml version="1.0" encoding="utf-8"?>
<!-- Generator: Adobe Illustrator 25.3.1, SVG Export Plug-In . SVG Version: 6.00 Build 0)  -->
<svg xmlns="http://www.w3.org/2000/svg" viewBox="0 0 430 430">
  <defs>
    <style>
      .cls-1 {
        isolation: isolate;
      }

      .cls-2 {
        fill: #121331;
      }

      .cls-3, .cls-6 {
        fill: #ebe6ef;
      }

      .cls-4, .cls-5 {
        fill: #373867;
      }

      .cls-5, .cls-6 {
        mix-blend-mode: multiply;
        opacity: 0.5;
      }
    </style>
  </defs>
  <g class="cls-1">
    <g id="Warstwa_1" data-name="Warstwa 1">
      <g>
        <path class="cls-2" d="M107.33,301.14H26.49a3.5,3.5,0,0,1,0-7h80.84a3.5,3.5,0,0,1,0,7Zm.2-41.25H26.69a3.5,3.5,0,1,1,0-7h80.84a3.5,3.5,0,0,1,0,7Zm0-41.75H26.69a3.5,3.5,0,1,1,0-7h80.84a3.5,3.5,0,0,1,0,7Zm-.15-41.25H26.54a3.5,3.5,0,1,1,0-7h80.84a3.5,3.5,0,0,1,0,7Zm0-41.75H26.54a3.5,3.5,0,1,1,0-7h80.84a3.5,3.5,0,0,1,0,7Z"/>
        <path class="cls-3" d="M403.52,134V296a2.37,2.37,0,0,1-2.37,2.37h-247a2.37,2.37,0,0,1-2.37-2.37V134a2.34,2.34,0,0,1,.7-1.67,2.3,2.3,0,0,1,1.67-.7h13.55l233.44,0a2.33,2.33,0,0,1,1.67.69A2.36,2.36,0,0,1,403.52,134Z"/>
        <path class="cls-4" d="M402.82,132.35l-104.6,105a29.21,29.21,0,0,1-41.34,0l-17.64-17.74-.14-.14-86.61-87.09a2.3,2.3,0,0,1,1.67-.7h13.55l233.44,0A2.33,2.33,0,0,1,402.82,132.35Z"/>
        <path class="cls-5" d="M273.09,237.31l-17.65-17.74-86.75-87.23c-.28-.28-.49-.5-.67-.7H154.16a2.3,2.3,0,0,0-1.67.7l86.75,87.23,17.64,17.74a29.18,29.18,0,0,0,24.78,8.28,28.85,28.85,0,0,0,4-.87A29,29,0,0,1,273.09,237.31Z"/>
        <path class="cls-6" d="M239.24,219.57l-87.45,73.18V282.58l66.45-58.39a82.87,82.87,0,0,1,15.14-10.43Z"/>
        <path class="cls-6" d="M403.52,282.63v10.13l-87.47-73.19,5.87-5.81a83.22,83.22,0,0,1,15.14,10.43l66.44,58.39Z"/>
      </g>
    </g>
  </g>
</svg>
