<?xml version="1.0" encoding="utf-8"?>
<!-- Generator: Adobe Illustrator 24.0.2, SVG Export Plug-In . SVG Version: 6.00 Build 0)  -->
<svg version="1.1" id="Warstwa_1" xmlns="http://www.w3.org/2000/svg" xmlns:xlink="http://www.w3.org/1999/xlink" x="0px" y="0px"
	 viewBox="0 0 430 430" style="enable-background:new 0 0 430 430;" xml:space="preserve">
<style type="text/css">
	.st0{display:none;}
	.st1{display:inline;fill:none;stroke:#121331;stroke-width:7;stroke-linecap:round;stroke-linejoin:round;}
	.st2{display:none;fill:none;stroke:#121331;stroke-width:7;stroke-linecap:round;stroke-linejoin:round;stroke-miterlimit:10;}
	.st3{fill:#ebe6ef;}
	.st4{opacity:0.7;}
	.st5{fill:#373867;}
	.st6{fill:#4bb3fd;}
	.st7{fill:#373867;}
	.st8{fill:#ffc738;}
	.st9{opacity:0.5;}
	.st10{opacity:0.3;}
	.st11{fill:#121331;}
	.st12{fill:none;stroke:#121331;stroke-width:7;stroke-linecap:round;stroke-linejoin:round;stroke-miterlimit:10;}
	.st13{fill:#646E78;}
	.st14{fill:none;stroke:#ebe6ef;stroke-width:7;stroke-linecap:round;stroke-linejoin:round;stroke-miterlimit:10;}
	.st15{fill:none;}
	.st16{fill:#F24C00;}
	.st17{fill:#F9C9C0;}
	.st18{fill:#B26836;}
	.st19{fill:#090B2E;}
	.st20{fill:none;stroke:#090B2E;stroke-width:7;stroke-linecap:round;stroke-linejoin:round;stroke-miterlimit:10;}
	.st21{fill:#F28BA8;}
	.st22{fill:#2CA58D;}
	.st23{fill:#08A789;}
</style>
<g>
	<path class="st3" d="M186.08,149.05c0,0-61.26-7.74-106.55,32.36c-2,1.77-0.83,5.07,1.83,5.24c43.15,2.71,59.44,19.01,59.44,19.01"
		/>
</g>
<g>
	<path class="st3" d="M211.65,277.92c9.81,7.08,13.17,11.75,13.17,11.75s16.3,16.3,19.01,59.45c0.17,2.66,3.46,3.83,5.23,1.83
		c40.11-45.24,32.52-105.82,32.52-105.82s-1.14-8.62-5.23-15.56"/>
</g>
<g class="st4">
	<path class="st3" d="M186.08,149.05c0,0-61.26-7.74-106.55,32.36c-2,1.77-0.83,5.07,1.83,5.24c43.15,2.71,59.44,19.01,59.44,19.01"
		/>
</g>
<g class="st4">
	<path class="st3" d="M211.65,277.92c9.81,7.08,13.17,11.75,13.17,11.75s16.3,16.3,19.01,59.45c0.17,2.66,3.46,3.83,5.23,1.83
		c40.11-45.24,32.52-105.82,32.52-105.82s-1.14-8.62-5.23-15.56"/>
</g>
<g>
	<path class="st5" d="M149.05,210.42l-3.47,12.05l-4.63,14.82c-4.63,14.8-0.66,30.95,10.31,41.92l0,0
		c10.97,10.97,27.12,14.94,41.92,10.31l14.82-4.64l24.22-7.31"/>
</g>
<g>
	<path class="st3" d="M209.59,283.89c5.77,5.77,14.84,6.65,21.57,2.04c15.94-10.91,35.38-27.65,60.6-52.87
		c46.69-46.69,69.27-106.16,64.92-157.49c-0.12-1.44-1.28-2.6-2.72-2.72c-51.33-4.35-110.8,18.23-157.49,64.92
		c-25.21,25.21-41.96,44.66-52.87,60.6c-4.61,6.73-3.73,15.8,2.04,21.57L209.59,283.89z"/>
</g>
<g>
	<path class="st6" d="M277.15,194.48c-11.63,11.63-30.48,11.63-42.11,0s-11.63-30.48,0-42.1c11.63-11.63,30.48-11.63,42.11,0
		C288.78,164.01,288.78,182.86,277.15,194.48z"/>
</g>
<g>
	<path class="st7" d="M276.27,85.06c0,0,2.25,21.61,24.83,44.19s43.54,23.55,43.54,23.55s16.13-39.84,12.11-77.26
		c-0.15-1.43-1.27-2.58-2.71-2.7C313.8,69.45,276.27,85.06,276.27,85.06z"/>
</g>
<g>
	<path class="st8" d="M135.6,335.65c-10.62,10.62-36.95,18.8-58.91,21.59c-1.98,0.25-3.64-1.47-3.34-3.45
		c3.52-22.75,10.81-48.27,21.46-58.92c11.26-11.26,29.52-11.26,40.78,0C146.86,306.13,146.86,324.39,135.6,335.65z"/>
</g>
<g class="st9">
	<path class="st6" d="M239.98,198.42c-11.63-11.63-11.63-30.48,0-42.1c10.06-10.06,25.51-11.41,37.03-4.07
		c-11.64-11.49-30.38-11.45-41.97,0.13c-11.63,11.63-11.63,30.48,0,42.1c1.57,1.57,3.28,2.92,5.07,4.07
		C240.07,198.5,240.03,198.46,239.98,198.42z"/>
</g>
<g class="st4">
	<g>
		<path class="st8" d="M132.45,327.68c-7.72,7.72-26.84,13.66-42.8,15.68c-1.44,0.18-2.65-1.07-2.42-2.5
			c2.56-16.53,7.85-35.07,15.59-42.81c8.18-8.18,21.45-8.18,29.63,0C140.63,306.23,140.63,319.5,132.45,327.68z"/>
	</g>
</g>
<g class="st10">
	<path class="st3" d="M276.27,85.06c0,0,0.63,6.08,4.6,15.16c-21.6,11.71-42.42,27.11-61.38,46.07
		c-35.21,35.21-55.68,60.37-67.09,80.41l-6.76-6.76c-5.77-5.77-6.65-14.84-2.04-21.57c10.91-15.94,27.65-35.39,52.87-60.6
		C220.62,113.62,248.18,95.93,276.27,85.06z"/>
</g>
<g class="st10">
	<path class="st3" d="M351.08,72.64c-0.93-0.06-1.86-0.1-2.8-0.14C349.21,72.54,350.15,72.58,351.08,72.64z"/>
</g>
<g class="st10">
	<path class="st3" d="M348.28,72.5c-26.74-1.12-51.52,5.56-63.85,9.62C306,74.8,327.72,71.55,348.28,72.5z"/>
</g>
<g class="st9">
	<path class="st7" d="M356.5,74.76c-25.1,3.47-50.87,12.04-75.63,25.46c-3.97-9.08-4.6-15.16-4.6-15.16s0.01,0,0.02-0.01
		c0.06-0.02,0.12-0.04,0.18-0.07c2.26-0.86,4.52-1.69,6.78-2.47c0.38-0.13,0.77-0.26,1.18-0.39c12.76-4.2,38.85-11.21,66.65-9.48
		c0.21,0.01,0.43,0.02,0.64,0.05c0.75,0.04,1.5,0.1,2.24,0.16C355.13,72.95,356.1,73.71,356.5,74.76z"/>
</g>
<g>
	<path class="st7" d="M283.25,82.51c-2.26,0.78-4.52,1.61-6.78,2.47C277.14,84.71,279.52,83.76,283.25,82.51z"/>
</g>
</svg>
