<?xml version="1.0" encoding="utf-8"?>
<!-- Generator: Adobe Illustrator 25.3.1, SVG Export Plug-In . SVG Version: 6.00 Build 0)  -->
<svg xmlns="http://www.w3.org/2000/svg" viewBox="0 0 430 430">
  <defs>
    <style>
      .cls-1 {
        isolation: isolate;
      }

      .cls-2, .cls-6 {
        fill: #f9c9c0;
      }

      .cls-3, .cls-5 {
        fill: #373867;
      }

      .cls-4 {
        fill: #b26836;
      }

      .cls-5, .cls-6, .cls-8 {
        mix-blend-mode: multiply;
        opacity: 0.5;
      }

      .cls-7, .cls-8 {
        fill: #ebe6ef;
      }

      .cls-9 {
        fill: #373867;
      }
    </style>
  </defs>
  <g class="cls-1">
    <g id="Warstwa_1" data-name="Warstwa 1">
      <g>
        <g>
          <path class="cls-2" d="M255.67,138.21v29.34A59,59,0,0,1,227,218.16h0v18.69c0,16.83-13.65,30-30.48,30h-2.4a30.3,30.3,0,0,1-28.57-19.45,29.82,29.82,0,0,1-1.9-10.54V217.35h0c-1-.65-2-1.33-3-2a0,0,0,0,0,0,0c-1-.71-1.93-1.46-2.87-2.22s-1.85-1.58-2.74-2.41c-.44-.42-.88-.84-1.31-1.27a59,59,0,0,1-13.1-19.64c-.29-.72-.57-1.45-.83-2.18s-.61-1.76-.88-2.65a58.66,58.66,0,0,1-2.61-17.37V138.63q4.89-1.11,9.4-2.38l.23-.06c1.93-.54,3.8-1.1,5.63-1.69,1-.29,1.89-.6,2.82-.92,1.85-.61,3.65-1.26,5.4-1.92,50.42-19,59.32-52,59.32-52,32.49,16.94,36.26,46.13,36.6,55.54C255.74,137.11,255.67,138.21,255.67,138.21Z"/>
          <path class="cls-3" d="M313.87,312.69v30.36a14.76,14.76,0,0,1-14.76,14.76H278.18c-18.43,1.45-28.27,5.49-35.76,9.17s-12.65,7-21.72,7H170.23c-18.12,0-20.52-13.32-57.6-16.2H93.91a14.76,14.76,0,0,1-14.76-14.76V312.69A75.83,75.83,0,0,1,155,236.85h8.65c0,16.83,13.64,30,30.47,30h2.4c16.83,0,30.48-13.17,30.48-30h11A75.83,75.83,0,0,1,313.87,312.69Z"/>
          <path class="cls-4" d="M255.67,138.21v-3c-.34-9.41-4.11-38.6-36.6-55.54,0,0-11.54,42.84-82.8,59-1.23.27-2.49.55-3.76.81,0,0-25.46-75,6.14-93.5a13.93,13.93,0,0,1,13.15.25c4.88,3.12,9.77,8.21,12.85,10.84a12.09,12.09,0,0,0,8.41,2.9c4.23-.21,9.74-2.2,15.88-4.52,50.27-19,72.92,15.58,73.45,30.24C263.31,111.2,265.29,132.44,255.67,138.21Z"/>
          <path class="cls-5" d="M165.54,247.4a29.82,29.82,0,0,1-1.9-10.54H155c-1.21,0-2.42,0-3.62.08s-2.39.14-3.57.25l-1.77.19c-.59.07-1.18.14-1.76.23-1.16.16-2.3.34-3.44.56h-.11a75.47,75.47,0,0,0-25.21,9.71c-.68.42-1.36.84-2,1.28s-1.11.74-1.66,1.13c-.26.17-.53.35-.79.55s-.53.37-.8.58c-.42.3-.84.61-1.25.93q-2.35,1.78-4.56,3.77l-.35.32-.32.29-.34.31c-.27.24-.53.49-.79.74l-.72.7-.52.52-.52.52a1.37,1.37,0,0,0-.17.17,1.29,1.29,0,0,1-.16.17c-1,1.07-2,2.16-3,3.29-.11.13-.22.25-.32.38l-.61.72h0L96,265h0a4.23,4.23,0,0,0-.33.41c-.36.45-.72.9-1.06,1.36a5.32,5.32,0,0,0-.36.47l-.29.39c-.16.22-.33.44-.49.67l-.28.39c-.1.13-.2.27-.29.41s-.36.5-.53.76l-.36.53c-.15.21-.29.42-.43.64-.41.63-.82,1.27-1.21,1.91l-.27.44c-.21.34-.41.68-.61,1l-.26.44a73.3,73.3,0,0,0-3.39,6.6q-.37.82-.72,1.65c-.24.57-.48,1.13-.71,1.71-.14.36-.28.72-.41,1.09-.24.63-.47,1.26-.69,1.9l-.21.6-.31.94c-.27.85-.53,1.7-.77,2.56q-.15.48-.27,1c-.19.67-.36,1.35-.52,2-.12.48-.23,1-.34,1.45a.43.43,0,0,1,0,.11,1.55,1.55,0,0,0,0,.21c-.06.26-.12.53-.17.79,0,.07,0,.14,0,.21-.08.37-.15.73-.22,1.1-.11.63-.22,1.27-.32,1.91-.06.37-.12.74-.17,1.12-.16,1.08-.29,2.18-.4,3.28l-.09.95c-.08.94-.15,1.89-.19,2.83,0,.26,0,.52,0,.78s0,.74,0,1.12c0,.64,0,1.29,0,1.94v30.35a14.73,14.73,0,0,0,2.93,8.84q.44.56.9,1.08c.15.17.31.34.49.51a15.26,15.26,0,0,0,2.19,1.81c.39.26.8.51,1.21.74s.85.43,1.29.62a14.86,14.86,0,0,0,5.75,1.15h18.72l1.39.12,1.36.13c-.93-6.84-1.79-14.86-2.24-23.33-.74-14.15-.18-26.79,1.65-37.58,2.29-13.49,6.59-24.1,12.8-31.53a32.7,32.7,0,0,1,8-7.89,49.22,49.22,0,0,1,9.67-5.48,65,65,0,0,1,18.16-4.75S164.21,247.47,165.54,247.4Z"/>
          <path class="cls-6" d="M165.36,218.41l-.24-.15.25.15Z"/>
          <path class="cls-6" d="M227,218.16v5.37s0,0,0,0v-5.39Z"/>
          <path class="cls-6" d="M227,218.16h0l-1.67,1c-.57.31-1.14.62-1.72.92s-1.15.59-1.74.86c-1.76.83-3.57,1.57-5.42,2.24-.62.22-1.24.43-1.87.62s-1.09.34-1.64.5l-.34.09-1.83.48c-.65.16-1.3.31-1.95.44l-1.13.22a58.61,58.61,0,0,1-20.58-8.14h0a58.91,58.91,0,0,1-27.36-49.79V131.67a177.78,177.78,0,0,1-23.47,7v28.93a58.91,58.91,0,0,0,27.36,49.79h0v19.49h0a29.82,29.82,0,0,0,1.9,10.54,157.47,157.47,0,0,0,28.26-4.18c12.1-3.05,26.74-8.86,33.19-19.67,0,0,0,0,0,0v-5.37Z"/>
        </g>
        <g>
          <path class="cls-7" d="M350.86,320.8A64.78,64.78,0,1,1,286.08,256,64.78,64.78,0,0,1,350.86,320.8Z"/>
          <path class="cls-8" d="M237.47,313.76a64.74,64.74,0,0,1,31-55.31,64.78,64.78,0,1,0,51.3,117.66,64.77,64.77,0,0,1-82.35-62.35Z"/>
        </g>
        <path class="cls-9" d="M319.36,317.36H290.22V288.22a3.5,3.5,0,0,0-7,0v29.14H254.08a3.5,3.5,0,0,0,0,7h29.14V353.5a3.5,3.5,0,0,0,7,0V324.36h29.14a3.5,3.5,0,0,0,0-7Z"/>
      </g>
    </g>
  </g>
</svg>