<?xml version="1.0" encoding="utf-8"?>
<!-- Generator: Adobe Illustrator 24.0.2, SVG Export Plug-In . SVG Version: 6.00 Build 0)  -->
<svg version="1.1" id="outline" xmlns="http://www.w3.org/2000/svg" xmlns:xlink="http://www.w3.org/1999/xlink" x="0px" y="0px"
	 viewBox="0 0 500 500" style="enable-background:new 0 0 500 500;" xml:space="preserve">
<style type="text/css">
	.st0{fill:#464785;}
	.st1{fill:#FFC738;}
	.st2{fill:#ebe6ef;}
	.st3{fill:#121331;}
	.st4{fill:#3A3347;}
	.st5{fill:#4BB3FD;}
	.st6{opacity:0.5;fill:#ebe6ef;}
	.st7{opacity:0.5;}
	.st8{opacity:0.5;fill:#4BB3FD;}
	.st9{fill:#B26836;}
	.st10{opacity:0.5;fill:#B26836;}
	.st11{opacity:0.5;fill:#3A3347;}
	.st12{opacity:0.5;fill:#FFC738;}
	.st13{fill:#F9C9C0;}
	.st14{opacity:0.5;fill:#F9C9C0;}
	.st15{opacity:0.5;fill:#464785;}
	.st16{fill:#08A88A;}
	.st17{fill:#373867;}
	.st18{opacity:0.5;fill:#373867;}
	.st19{fill:#2CA58D;}
	.st20{fill:#F1F1F1;}
	.st21{fill:#F28BA8;}
	.st22{opacity:0.5;fill:#F28BA8;}
	.st23{fill:#92140C;}
	.st24{opacity:0.5;fill:#92140C;}
	.st25{fill:#FFFFFF;}
	.st26{fill:none;}
	.st27{opacity:0.5;fill:#2CA58D;}
	.st28{opacity:0.4;fill:#B26836;}
	.st29{fill:none;stroke:#121331;stroke-width:7;stroke-linecap:round;stroke-linejoin:round;stroke-miterlimit:10;}
	.st30{fill:#08A789;}
</style>
<path class="st4" d="M250,166.5c-1.93,0-3.5-1.57-3.5-3.5v-46.43c0-1.93,1.57-3.5,3.5-3.5s3.5,1.57,3.5,3.5V163
	C253.5,164.93,251.93,166.5,250,166.5z"/>
<path class="st4" d="M174.65,210c-0.59,0-1.2-0.15-1.75-0.47l-40.21-23.22c-1.67-0.97-2.25-3.11-1.28-4.78
	c0.97-1.67,3.11-2.25,4.78-1.28l40.21,23.22c1.67,0.97,2.25,3.11,1.28,4.78C177.04,209.37,175.86,210,174.65,210z"/>
<path class="st4" d="M134.45,320.22c-1.21,0-2.39-0.63-3.03-1.75c-0.97-1.67-0.39-3.81,1.28-4.78l40.21-23.22
	c1.67-0.97,3.81-0.39,4.78,1.28c0.97,1.67,0.39,3.81-1.28,4.78l-40.21,23.22C135.64,320.07,135.04,320.22,134.45,320.22z"/>
<path class="st4" d="M250,386.93c-1.93,0-3.5-1.57-3.5-3.5V337c0-1.93,1.57-3.5,3.5-3.5s3.5,1.57,3.5,3.5v46.43
	C253.5,385.37,251.93,386.93,250,386.93z"/>
<path class="st4" d="M365.55,320.22c-0.59,0-1.2-0.15-1.75-0.47l-40.21-23.22c-1.67-0.97-2.25-3.11-1.28-4.78
	c0.97-1.67,3.11-2.25,4.78-1.28l40.21,23.22c1.67,0.97,2.25,3.11,1.28,4.78C367.94,319.59,366.76,320.22,365.55,320.22z"/>
<path class="st4" d="M325.35,210c-1.21,0-2.39-0.63-3.03-1.75c-0.97-1.67-0.39-3.81,1.28-4.78l40.21-23.22
	c1.67-0.97,3.81-0.39,4.78,1.28s0.39,3.81-1.28,4.78l-40.21,23.22C326.54,209.85,325.94,210,325.35,210z"/>
<circle class="st2" cx="250" cy="250" r="87"/>
<g>
	<path class="st17" d="M237.94,259.8h24.12c13.32,0,24.12,10.8,24.12,24.12v8.07c0,2.21-1.66,4.08-3.86,4.33l-8.44,0.98
		c-2.31,0.27-4.56,0.86-6.7,1.75h0c-11.02,4.61-23.41,4.62-34.44,0.04l-0.06-0.02c-2.23-0.93-4.59-1.54-6.99-1.82l-8-0.92
		c-2.2-0.25-3.86-2.12-3.86-4.33v-8.07C213.83,270.59,224.62,259.8,237.94,259.8z"/>
	<path class="st17" d="M249.44,197.5h1.13c9.8,0,17.65,8.13,17.31,17.92l-0.56,16.21c-0.32,9.33-7.98,16.72-17.31,16.72h0
		c-9.33,0-16.98-7.39-17.31-16.72l-0.56-16.21C231.79,205.63,239.63,197.5,249.44,197.5z"/>
</g>
<g>
	<circle class="st0" cx="250" cy="89.88" r="26.69"/>
	<circle class="st0" cx="111.33" cy="169.94" r="26.69"/>
	<circle class="st0" cx="111.33" cy="330.06" r="26.69"/>
	<circle class="st0" cx="250" cy="410.12" r="26.69"/>
	<circle class="st0" cx="388.67" cy="330.06" r="26.69"/>
	<circle class="st0" cx="388.67" cy="169.94" r="26.69"/>
</g>
<g class="st7">
	<path class="st17" d="M264.7,299.98c-4.78,1.68-9.79,2.52-14.79,2.52c-5.84,0-11.67-1.15-17.17-3.43l-0.06-0.03
		c-2.23-0.93-4.59-1.54-6.99-1.81l-8-0.93c-2.2-0.25-3.86-2.11-3.86-4.33v-8.06c0-12.72,9.86-23.15,22.35-24.05
		c-8.45,3.74-14.35,12.21-14.35,22.05v8.06c0,2.22,1.66,4.08,3.86,4.33l8,0.93c2.4,0.27,4.76,0.88,6.99,1.81l0.06,0.03
		c5.5,2.28,11.33,3.43,17.17,3.43C260.18,300.5,262.45,300.33,264.7,299.98z"/>
	<path class="st17" d="M258.09,246.34c-2.42,1.28-5.17,2-8.09,2c-4.67,0-8.91-1.85-12.03-4.86c-3.12-3.01-5.11-7.19-5.27-11.86
		l-0.57-16.2c-0.34-9.77,7.47-17.88,17.23-17.92c-5.67,2.99-9.47,9.04-9.23,15.92l0.57,16.2c0.16,4.67,2.15,8.85,5.27,11.86
		c3.12,3.01,7.36,4.86,12.03,4.86H258.09z"/>
</g>
<g class="st7">
	<path class="st0" d="M255,116.09c-1.62,0.31-3.29,0.47-5,0.47c-14.73,0-26.68-11.95-26.68-26.68c0-14.74,11.95-26.69,26.68-26.69
		c1.71,0,3.38,0.16,5,0.47c-12.34,2.34-21.68,13.19-21.68,26.22C233.32,102.9,242.66,113.75,255,116.09z"/>
	<path class="st0" d="M107.99,193.05c2.65,1.53,5.46,2.56,8.31,3.11c-6.06,1.15-12.55,0.22-18.31-3.11
		c-12.76-7.37-17.13-23.69-9.76-36.46c5.84-10.11,17.29-14.95,28.14-12.87c-7.36,1.4-14.1,5.87-18.14,12.87
		C90.86,169.36,95.23,185.68,107.99,193.05z"/>
	<path class="st0" d="M116.37,356.28c-10.85,2.08-22.3-2.77-28.14-12.88c-7.37-12.77-3-29.09,9.76-36.46
		c5.76-3.33,12.25-4.26,18.31-3.11c-2.85,0.55-5.66,1.58-8.31,3.11c-12.76,7.37-17.13,23.69-9.76,36.46
		C102.27,350.4,109.01,354.88,116.37,356.28z"/>
	<path class="st0" d="M255,436.33c-1.62,0.31-3.29,0.47-5,0.47c-14.73,0-26.68-11.95-26.68-26.69c0-14.73,11.95-26.68,26.68-26.68
		c1.71,0,3.38,0.16,5,0.47c-12.34,2.34-21.68,13.19-21.68,26.21C233.32,423.14,242.66,433.99,255,436.33z"/>
	<path class="st0" d="M385.33,353.17c2.65,1.53,5.46,2.56,8.31,3.11c-6.06,1.15-12.55,0.22-18.31-3.11
		c-12.77-7.37-17.14-23.69-9.77-36.46c5.84-10.11,17.29-14.96,28.15-12.88c-7.36,1.4-14.11,5.88-18.15,12.88
		C368.19,329.48,372.57,345.8,385.33,353.17z"/>
	<path class="st0" d="M393.71,196.16c-10.86,2.08-22.31-2.77-28.15-12.88c-7.37-12.76-3-29.09,9.77-36.46
		c5.76-3.32,12.25-4.25,18.31-3.1c-2.85,0.55-5.66,1.57-8.31,3.1c-12.76,7.37-17.14,23.7-9.77,36.46
		C379.6,190.28,386.35,194.76,393.71,196.16z"/>
</g>
<path class="st6" d="M258.51,336.58c-2.8,0.27-5.64,0.41-8.51,0.41c-48.04,0-86.99-38.95-86.99-86.99c0-48.05,38.95-87,86.99-87
	c2.87,0,5.71,0.14,8.51,0.41c-44.06,4.27-78.5,41.41-78.5,86.59C180.01,295.17,214.45,332.31,258.51,336.58z"/>
</svg>
